<?xml version="1.0" encoding="UTF-8"?>
<svg width="231px" height="60px" viewBox="0 0 231 60" version="1.1" xmlns="http://www.w3.org/2000/svg" xmlns:xlink="http://www.w3.org/1999/xlink">
    <!-- Generator: Sketch 56.3 (81716) - https://sketch.com -->
    <title>cookiepro_logo</title>
    <desc>Created with Sketch.</desc>
    <g id="Page-1" stroke="none" stroke-width="1" fill="none" fill-rule="evenodd">
        <g id="Setting-Page-Banner2" transform="translate(-55.000000, -30.000000)" fill="#FFFFFF">
            <g id="cookiepro_logo" transform="translate(55.000000, 30.000000)">
                <g id="Group-4">
                    <path d="M22.7491146,32.2069655 C20.464269,33.7187211 17.782059,34.4417346 14.7024845,34.4417346 C11.7222512,34.4417346 9.10626857,33.8173138 6.92076411,32.5356081 C4.70214595,31.2539023 2.98023335,29.38064 1.78814001,26.9815497 C0.59604667,24.5824594 0,21.7561339 0,18.5025731 C0,15.2490123 0.59604667,12.4226867 1.78814001,10.0235964 C2.98023335,7.62450613 4.66903225,5.7841081 6.88765041,4.50240233 C9.10626857,3.22069655 11.6560238,2.59627579 14.6362571,2.59627579 C17.7489453,2.59627579 20.3649279,3.22069655 22.4842049,4.50240233 C24.603482,5.7841081 26.1267124,7.65737038 27.0870098,10.1879177 L22.3186364,12.2912297 C21.6894761,10.4508317 20.7622923,9.1033974 19.570199,8.24892689 C18.3781057,7.39445638 16.8217616,6.96722112 14.9011668,6.96722112 C11.9871608,6.96722112 9.63608783,7.98601289 7.88106153,10.0235964 C6.15914893,12.06118 5.29819262,14.8875055 5.29819262,18.5025731 C5.29819262,22.1505049 6.12603522,25.0096947 7.81483412,27.014414 C9.47051931,29.0519975 11.7884786,30.0707893 14.7687119,30.0707893 C16.7886479,30.0707893 18.4774468,29.5778255 19.8351086,28.5590337 C21.1927705,27.5731062 22.1861816,26.0942149 22.7822283,24.1552242 L27.5837153,25.7327082 C26.6234179,28.5590337 25.0008464,30.69521 22.7491146,32.2069655 L22.7491146,32.2069655 Z" id="Path"></path>
                    <path d="M52.3527659,13.3100215 C54.4389292,15.479062 55.465454,18.4368446 55.465454,22.2490976 C55.465454,26.0613507 54.4389292,29.0519975 52.3527659,31.1881738 C50.2666025,33.3243501 47.3857103,34.4088703 43.7100891,34.4088703 C40.034468,34.4088703 37.1535758,33.3243501 35.0674124,31.1881738 C32.9812491,29.0519975 31.9547243,26.0613507 31.9547243,22.2490976 C31.9547243,18.4368446 32.9812491,15.4461978 35.0674124,13.3100215 C37.1535758,11.1738452 40.034468,10.0893249 43.7100891,10.0893249 C47.3857103,10.0893249 50.2666025,11.1409809 52.3527659,13.3100215 Z M38.7761473,16.136347 C37.6171676,17.5495098 37.0542347,19.5870933 37.0542347,22.2490976 C37.0542347,24.9111019 37.6171676,26.9486855 38.7761473,28.3618482 C39.9351269,29.775011 41.5576984,30.4980245 43.7100891,30.4980245 C45.8624799,30.4980245 47.5181651,29.775011 48.6771447,28.328984 C49.8361244,26.882957 50.432171,24.8453734 50.432171,22.2490976 C50.432171,19.6528218 49.8361244,17.582374 48.6771447,16.1692113 C47.5181651,14.7231842 45.8624799,14.0001707 43.7100891,14.0001707 C41.5908121,14.0001707 39.9351269,14.7231842 38.7761473,16.136347 L38.7761473,16.136347 Z" id="Shape" fill-rule="nonzero"></path>
                    <path d="M80.963006,13.3100215 C83.0491694,15.479062 84.0756942,18.4368446 84.0756942,22.2490976 C84.0756942,26.0613507 83.0491694,29.0519975 80.963006,31.1881738 C78.8768427,33.3243501 75.9959504,34.4088703 72.3203293,34.4088703 C68.6447082,34.4088703 65.7638159,33.3243501 63.6776526,31.1881738 C61.5914893,29.0519975 60.5649644,26.0613507 60.5649644,22.2490976 C60.5649644,18.4368446 61.5914893,15.4461978 63.6776526,13.3100215 C65.7638159,11.1738452 68.6447082,10.0893249 72.3203293,10.0893249 C75.9959504,10.0893249 78.8768427,11.1409809 80.963006,13.3100215 Z M67.3863874,16.136347 C66.2274078,17.5495098 65.6644748,19.5870933 65.6644748,22.2490976 C65.6644748,24.9111019 66.2274078,26.9486855 67.3863874,28.3618482 C68.5453671,29.775011 70.1679386,30.4980245 72.3203293,30.4980245 C74.4727201,30.4980245 76.1284053,29.775011 77.2873849,28.328984 C78.4463645,26.882957 79.0424112,24.8453734 79.0424112,22.2490976 C79.0424112,19.6528218 78.4463645,17.582374 77.2873849,16.1692113 C76.1284053,14.7231842 74.4727201,14.0001707 72.3203293,14.0001707 C70.2010523,14.0001707 68.5453671,14.7231842 67.3863874,16.136347 L67.3863874,16.136347 Z" id="Shape" fill-rule="nonzero"></path>
                    <polygon id="Path" points="100.268295 22.9721111 95.5992632 27.7374275 95.5992632 33.9816351 90.5328665 33.9816351 90.5328665 4.26325641e-14 95.5992632 4.26325641e-14 95.5992632 22.0190479 106.891036 10.5494244 112.851503 10.5494244 103.811462 19.7185503 113.381322 33.9487708 107.520197 33.9487708"></polygon>
                    <path d="M118.116582,5.7841081 C117.520535,5.22541584 117.222512,4.46953808 117.222512,3.45074631 C117.222512,2.46481879 117.520535,1.67607678 118.116582,1.15024877 C118.712628,0.624420761 119.540471,0.361506756 120.633223,0.361506756 C121.692862,0.361506756 122.520704,0.624420761 123.116751,1.15024877 C123.712798,1.67607678 123.977707,2.43195454 123.977707,3.45074631 C123.977707,4.43667383 123.679684,5.22541584 123.116751,5.7841081 C122.520704,6.34280036 121.692862,6.60571436 120.633223,6.60571436 C119.540471,6.60571436 118.712628,6.34280036 118.116582,5.7841081 Z M123.116751,33.9816351 L118.050354,33.9816351 L118.050354,10.5494244 L123.116751,10.5494244 L123.116751,33.9816351 Z" id="Shape" fill-rule="nonzero"></path>
                    <path d="M151.925673,24.1223599 L134.64032,24.1223599 C134.938343,26.1928077 135.666845,27.7374275 136.858938,28.8219477 C138.051032,29.906468 139.607376,30.432296 141.494857,30.432296 C143.051201,30.432296 144.309522,30.169382 145.336046,29.6106898 C146.362571,29.0519975 147.057959,28.2632555 147.42221,27.2444637 L151.62765,28.986269 C149.872624,32.6013366 146.495026,34.4088703 141.461743,34.4088703 C137.753008,34.4088703 134.839002,33.3243501 132.752839,31.1881738 C130.666676,29.0191332 129.607037,26.0613507 129.607037,22.2490976 C129.607037,18.4039803 130.600448,15.4133335 132.620384,13.2771572 C134.64032,11.1409809 137.454985,10.0564607 141.130606,10.0564607 C144.607545,10.0564607 147.289755,11.1081167 149.21035,13.2114287 C151.130945,15.3147408 152.091242,18.0753378 152.091242,21.5589484 C152.124356,22.4462831 152.058128,23.3336179 151.925673,24.1223599 L151.925673,24.1223599 Z M136.759597,15.6433833 C135.633731,16.6950393 134.938343,18.2396591 134.673434,20.2772426 L147.42221,20.2772426 C147.1573,18.3053876 146.495026,16.793632 145.402274,15.6762475 C144.309522,14.5917272 142.918746,14.033035 141.16372,14.033035 C139.342466,14.0658992 137.852349,14.5917272 136.759597,15.6433833 L136.759597,15.6433833 Z" id="Shape" fill-rule="nonzero"></path>
                    <path d="M178.913342,5.61978685 C180.867051,7.32872787 181.860462,9.69495391 181.860462,12.6856007 C181.860462,15.6762475 180.867051,18.0424736 178.913342,19.7514146 C176.959634,21.4603556 174.277424,22.3148261 170.899826,22.3148261 L163.945948,22.3148261 L163.945948,33.9816351 L158.879551,33.9816351 L158.879551,3.0563753 L170.866712,3.0563753 C174.277424,3.0563753 176.959634,3.91084582 178.913342,5.61978685 L178.913342,5.61978685 Z M175.005925,16.6950393 C176.065564,15.8077045 176.595383,14.4602702 176.595383,12.6856007 C176.595383,9.1033974 174.409878,7.29586362 170.071983,7.29586362 L163.945948,7.29586362 L163.945948,18.0424736 L170.071983,18.0424736 C172.323715,18.0424736 173.946287,17.582374 175.005925,16.6950393 L175.005925,16.6950393 Z" id="Shape" fill-rule="nonzero"></path>
                    <path d="M202.58964,10.5494244 L201.794912,15.1504195 C201.06641,14.7560485 200.072999,14.5259987 198.814678,14.5259987 C197.821267,14.5259987 196.86097,14.7889128 195.9669,15.3147408 C195.07283,15.8405688 194.344328,16.6293108 193.748282,17.7138311 C193.152235,18.7654871 192.887325,20.0471928 192.887325,21.5589484 L192.887325,33.9816351 L187.820929,33.9816351 L187.820929,10.5494244 L192.12571,10.5494244 L192.556188,14.7560485 C193.880736,11.6339447 196.364264,10.0564607 200.006772,10.0564607 C201.099524,10.0893249 201.96048,10.2207819 202.58964,10.5494244 L202.58964,10.5494244 Z" id="Path"></path>
                    <path d="M225.769233,13.3100215 C227.855397,15.479062 228.881921,18.4368446 228.881921,22.2490976 C228.881921,26.0613507 227.855397,29.0519975 225.769233,31.1881738 C223.68307,33.3243501 220.802178,34.4088703 217.126556,34.4088703 C213.450935,34.4088703 210.570043,33.3243501 208.48388,31.1881738 C206.397716,29.0519975 205.371192,26.0613507 205.371192,22.2490976 C205.371192,18.4368446 206.397716,15.4461978 208.48388,13.3100215 C210.570043,11.1738452 213.450935,10.0893249 217.126556,10.0893249 C220.802178,10.0893249 223.68307,11.1409809 225.769233,13.3100215 Z M212.192615,16.136347 C211.033635,17.5495098 210.470702,19.5870933 210.470702,22.2490976 C210.470702,24.9111019 211.033635,26.9486855 212.192615,28.3618482 C213.351594,29.775011 214.974166,30.4980245 217.126556,30.4980245 C219.278947,30.4980245 220.934632,29.775011 222.093612,28.328984 C223.252592,26.882957 223.848638,24.8453734 223.848638,22.2490976 C223.848638,19.6528218 223.252592,17.582374 222.093612,16.1692113 C220.934632,14.7231842 219.278947,14.0001707 217.126556,14.0001707 C214.974166,14.0001707 213.351594,14.7231842 212.192615,16.136347 L212.192615,16.136347 Z" id="Shape" fill-rule="nonzero"></path>
                </g>
                <g id="Group" transform="translate(123.678588, 42.009085)">
                    <path d="M7.74151705,5.3063363 C8.50570113,6.15274578 8.87118048,7.29214314 8.87118048,8.78963682 C8.87118048,10.2545763 8.50570113,11.4265279 7.74151705,12.2729373 C6.97733296,13.1193468 5.94734571,13.5425516 4.65155531,13.5425516 C3.92059662,13.5425516 3.28931411,13.3797805 2.72448239,13.0542384 C2.15965068,12.7286963 1.72772054,12.3054916 1.46191738,11.7846242 L1.3622412,13.3797805 L0.0664507901,13.3797805 L0.0664507901,0.0976626314 L1.56159357,0.0976626314 L1.56159357,5.69698683 C1.86062212,5.20867367 2.29255226,4.81802315 2.82415858,4.52503525 C3.3557649,4.23204736 3.98704741,4.10183052 4.65155531,4.10183052 C5.94734571,4.0367221 6.97733296,4.45992683 7.74151705,5.3063363 L7.74151705,5.3063363 Z M6.61185362,11.296311 C7.14345994,10.677781 7.3760377,9.83137156 7.3760377,8.75708261 C7.3760377,7.71534788 7.11023454,6.86893841 6.61185362,6.25040841 C6.0802473,5.63187841 5.382514,5.3063363 4.48542833,5.3063363 C3.58834267,5.3063363 2.89060937,5.5993242 2.35900305,6.2178542 C1.82739673,6.8363842 1.56159357,7.65023946 1.56159357,8.65941998 L1.56159357,8.88729945 C1.56159357,9.89647998 1.82739673,10.7103352 2.35900305,11.3288652 C2.89060937,11.9473952 3.58834267,12.2403831 4.48542833,12.2403831 C5.382514,12.2403831 6.0802473,11.914841 6.61185362,11.296311 Z" id="Shape" fill-rule="nonzero"></path>
                    <path d="M15.0178786,14.84472 C14.6523992,15.7236837 14.2536945,16.3422136 13.8217643,16.70031 C13.3898342,17.0584063 12.7917771,17.2537315 12.0940438,17.2537315 C11.6288883,17.2537315 11.2301835,17.1886231 10.8979296,17.0584063 C10.5656756,16.9281894 10.2998725,16.7328642 10.0340693,16.4724305 L10.5656756,15.2353705 C10.931155,15.7236837 11.4295359,15.9515631 12.0608184,15.9515631 C12.4262978,15.9515631 12.7253263,15.8539005 13.0243549,15.626021 C13.290158,15.3981415 13.5559612,15.0400452 13.7553136,14.4540694 L14.2536945,13.2821179 L10.3663233,4.23204736 L12.0608184,4.23204736 L14.3865961,10.1569137 L14.9514278,11.7846242 L15.6159357,9.99414261 L17.7755864,4.23204736 L19.3704053,4.23204736 L15.0178786,14.84472 Z" id="Path"></path>
                    <path d="M35.5843981,1.85559 C36.4482584,2.34390315 37.1459917,3.06009578 37.6111472,4.00416789 C38.0763027,4.94823999 38.3088805,6.02252893 38.3088805,7.29214314 C38.3088805,8.56175735 38.0763027,9.66860051 37.6111472,10.5801184 C37.1459917,11.5241905 36.4814838,12.2403831 35.5843981,12.7286963 C34.7205378,13.2170094 33.6905506,13.4774431 32.4944364,13.4774431 C31.2983221,13.4774431 30.3015603,13.2170094 29.4377,12.7286963 C28.5738397,12.2403831 27.9093318,11.5241905 27.4441763,10.5801184 C26.9790208,9.6360463 26.746443,8.56175735 26.746443,7.29214314 C26.746443,6.02252893 26.9790208,4.91568578 27.4441763,4.00416789 C27.9093318,3.06009578 28.5738397,2.34390315 29.4377,1.85559 C30.3015603,1.36727684 31.3315475,1.10684316 32.4944364,1.10684316 C33.6573252,1.10684316 34.7205378,1.36727684 35.5843981,1.85559 Z M29.8031794,4.00416789 C29.1386715,4.78546894 28.8064175,5.89231209 28.8064175,7.32469735 C28.8064175,8.75708261 29.1386715,9.86392577 29.8031794,10.6452268 C30.4676873,11.4265279 31.3647729,11.8171784 32.5276618,11.8171784 C33.6905506,11.8171784 34.5876363,11.4265279 35.2521442,10.6452268 C35.9166521,9.86392577 36.248906,8.75708261 36.248906,7.32469735 C36.248906,5.89231209 35.9166521,4.78546894 35.2521442,4.00416789 C34.5876363,3.22286684 33.6905506,2.83221631 32.5276618,2.83221631 C31.3647729,2.7996621 30.4676873,3.22286684 29.8031794,4.00416789 Z" id="Shape" fill-rule="nonzero"></path>
                    <path d="M48.442626,4.91568578 C49.1071339,5.50166157 49.4061624,6.34807104 49.4061624,7.42235998 L49.4061624,13.3146721 L47.4126387,13.3146721 L47.4126387,8.04088998 C47.4126387,6.44573367 46.7481308,5.63187841 45.419115,5.63187841 C44.7213817,5.63187841 44.1233246,5.85975788 43.6249437,6.34807104 C43.1265628,6.80382999 42.893985,7.52002262 42.893985,8.49664893 L42.893985,13.3146721 L40.9004613,13.3146721 L40.9004613,4.19949315 L42.6614073,4.19949315 L42.7610834,5.69698683 C43.060112,5.11101104 43.4920421,4.68780631 44.0568738,4.42737262 C44.6217056,4.16693894 45.2197627,4.00416789 45.917496,4.00416789 C46.9474832,4.0367221 47.7781181,4.32970999 48.442626,4.91568578 L48.442626,4.91568578 Z" id="Path"></path>
                    <path d="M60.6695714,9.50582945 L53.8583654,9.50582945 C53.9580416,10.3196847 54.2570701,10.9056605 54.7222257,11.3288652 C55.1873812,11.75207 55.7854383,11.9473952 56.5496224,11.9473952 C57.1476795,11.9473952 57.6460604,11.8497326 58.0779906,11.6218531 C58.4766953,11.3939737 58.7424985,11.1009858 58.9086254,10.7103352 L60.5698952,11.3939737 C59.8721619,12.7938047 58.5431461,13.5099973 56.5828478,13.5099973 C55.1209304,13.5099973 53.991267,13.0867926 53.1606321,12.2403831 C52.3299972,11.3939737 51.9312925,10.2545763 51.9312925,8.75708261 C51.9312925,7.25958893 52.3299972,6.08763736 53.1274067,5.27378209 C53.9248162,4.42737262 55.0212542,4.0367221 56.4831716,4.0367221 C57.8454128,4.0367221 58.9086254,4.42737262 59.6728095,5.24122788 C60.4369936,6.05508315 60.802473,7.12937209 60.802473,8.49664893 C60.7360222,8.85474524 60.7027968,9.18028735 60.6695714,9.50582945 L60.6695714,9.50582945 Z M54.6890003,6.2178542 C54.2570701,6.64105893 53.9580416,7.22703472 53.8583654,8.00833577 L58.8754,8.00833577 C58.7757239,7.22703472 58.5099207,6.64105893 58.0779906,6.2178542 C57.6460604,5.79464946 57.0812287,5.56676999 56.4167208,5.56676999 C55.6857621,5.5993242 55.1209304,5.79464946 54.6890003,6.2178542 Z" id="Shape" fill-rule="nonzero"></path>
                    <polygon id="Path" points="71.0358946 2.96243315 66.8494949 2.96243315 66.8494949 13.3146721 64.8559711 13.3146721 64.8559711 2.96243315 60.6695714 2.96243315 60.6695714 1.30216842 71.06912 1.30216842 71.06912 2.96243315"></polygon>
                    <path d="M77.714199,4.23204736 L77.3819451,6.02252893 C77.0829165,5.85975788 76.7174372,5.79464946 76.2190563,5.79464946 C75.8203515,5.79464946 75.4548722,5.89231209 75.0893928,6.12019157 C74.7239135,6.31551683 74.4581103,6.64105893 74.2255326,7.06426367 C73.9929548,7.48746841 73.8932786,7.97578156 73.8932786,8.56175735 L73.8932786,13.3797805 L71.8997549,13.3797805 L71.8997549,4.26460157 L73.59425,4.26460157 L73.760377,5.89231209 C74.2919833,4.68780631 75.2555198,4.06927631 76.6842118,4.06927631 C77.1161419,4.0367221 77.4483959,4.10183052 77.714199,4.23204736 L77.714199,4.23204736 Z" id="Path"></path>
                    <path d="M88.0140715,4.23204736 L88.0140715,13.3472263 L86.2531256,13.3472263 L86.1866748,11.8822868 C85.5553923,12.98913 84.4589542,13.5425516 82.8641353,13.5425516 C81.8673734,13.5425516 81.0367385,13.2821179 80.4386814,12.7286963 C79.8406243,12.1752747 79.5083704,11.3614194 79.5083704,10.2545763 L79.5083704,4.23204736 L81.5018941,4.23204736 L81.5018941,9.70115472 C81.5018941,10.51501 81.668021,11.0684316 82.000275,11.3939737 C82.3325289,11.7195158 82.7976845,11.8822868 83.428967,11.8822868 C84.1931511,11.8822868 84.7912082,11.6544073 85.2895891,11.1660942 C85.78797,10.7103352 86.0205478,9.99414261 86.0205478,9.08262472 L86.0205478,4.23204736 L88.0140715,4.23204736 Z" id="Path"></path>
                    <path d="M91.9678935,13.0216842 C91.2369348,12.6961421 90.7053285,12.2403831 90.3066238,11.5892989 L91.6356396,10.4499016 C91.8682173,10.9707689 92.2336967,11.3614194 92.7320776,11.5892989 C93.2304585,11.8171784 93.8285156,11.9473952 94.5262489,11.9473952 C95.1575314,11.9473952 95.6559124,11.8497326 95.9881663,11.6544073 C96.3204203,11.4590821 96.5197726,11.1986484 96.5197726,10.8731063 C96.5197726,10.5801184 96.3536457,10.3522389 96.0213917,10.1569137 C95.6891378,9.99414261 95.1575314,9.79881735 94.360122,9.66860051 C92.9978808,9.40816682 92.0343443,9.08262472 91.4695126,8.65941998 C90.9046809,8.23621525 90.6388777,7.61768525 90.6388777,6.86893841 C90.6388777,6.38062525 90.8050047,5.89231209 91.1040332,5.46910736 C91.4030618,5.04590262 91.8682173,4.68780631 92.4662744,4.42737262 C93.0643316,4.16693894 93.7620648,4.0367221 94.5594743,4.0367221 C95.5894616,4.0367221 96.4200965,4.19949315 97.0181536,4.52503525 C97.6494361,4.85057736 98.1145916,5.37144473 98.4468455,6.08763736 L97.0181536,7.09681788 C96.7855758,6.57595051 96.4865472,6.18529999 96.0878425,5.9248663 C95.6891378,5.66443262 95.1575314,5.56676999 94.5594743,5.56676999 C93.9946426,5.56676999 93.5294871,5.66443262 93.1640077,5.89231209 C92.7985284,6.12019157 92.599176,6.38062525 92.599176,6.67361314 C92.599176,6.99915525 92.765303,7.25958893 93.0975569,7.45491419 C93.4298109,7.65023946 94.027868,7.81301051 94.8917283,7.97578156 C96.2207441,8.20366104 97.1510551,8.52920314 97.6826615,8.95240788 C98.2142678,9.37561261 98.5132963,9.9615884 98.5132963,10.7428895 C98.5132963,11.5567447 98.147817,12.2078289 97.4500837,12.7286963 C96.719125,13.2495637 95.7555885,13.5099973 94.4597981,13.5099973 C93.5294871,13.5099973 92.6656268,13.3472263 91.9678935,13.0216842 L91.9678935,13.0216842 Z" id="Path"></path>
                    <path d="M106.952547,12.7286963 C106.653518,12.9565758 106.288039,13.151901 105.856109,13.3146721 C105.424179,13.4448889 104.959023,13.5099973 104.460642,13.5099973 C103.596782,13.5099973 102.932274,13.3146721 102.400668,12.8914673 C101.869061,12.4682626 101.636483,11.8171784 101.603258,10.9382147 L101.603258,5.76209525 L99.8423121,5.76209525 L99.8423121,4.23204736 L101.603258,4.23204736 L101.603258,2.11602368 L103.596782,1.5626021 L103.596782,4.23204736 L106.85287,4.23204736 L106.85287,5.76209525 L103.596782,5.76209525 L103.596782,10.6126726 C103.596782,11.0358773 103.729683,11.3614194 103.962261,11.5892989 C104.194839,11.8171784 104.527093,11.914841 104.959023,11.914841 C105.523855,11.914841 106.022236,11.7195158 106.454166,11.3288652 L106.952547,12.7286963 Z" id="Path"></path>
                </g>
            </g>
        </g>
    </g>
</svg>