<?xml version="1.0" encoding="UTF-8"?>
<svg width="66px" height="65px" viewBox="0 0 66 65" version="1.1" xmlns="http://www.w3.org/2000/svg" xmlns:xlink="http://www.w3.org/1999/xlink">
    <!-- Generator: Sketch 56.3 (81716) - https://sketch.com -->
    <title>Group</title>
    <desc>Created with Sketch.</desc>
    <g id="Symbols" stroke="none" stroke-width="1" fill="none" fill-rule="evenodd">
        <g id="homepage/icon/Cookies" transform="translate(-15.000000, -16.000000)">
            <g id="Group" transform="translate(16.000000, 16.631767)">
                <path d="M63.9990301,31.1164475 C63.9996763,31.2002995 64,31.2842284 64,31.3682329 C64,49.0413449 49.673112,63.3682329 32,63.3682329 C14.326888,63.3682329 0,49.0413449 0,31.3682329 C0,15.742858 11.1991922,2.73319457 26.0086413,-0.0718219876 C26.0028984,0.0741500767 26,0.220852992 26,0.368232866 C26,5.98757562 30.2136081,10.6227775 35.6536494,11.2866634 C35.2295281,12.5702875 35,13.9424556 35,15.3682329 C35,22.5479346 40.8202983,28.3682329 48,28.3682329 C50.4313085,28.3682329 52.7067279,27.7007924 54.6530283,26.5391413 C55.8808334,29.3801176 58.7082421,31.3682329 62,31.3682329 C62.6902499,31.3682329 63.3600823,31.2808153 63.9990301,31.1164475 Z" id="Combined-Shape" stroke="#323F4E" fill="#FFFFFF"></path>
                <circle id="Oval-14" fill="#BDBDBD" cx="16.5" cy="21.8682329" r="6.5"></circle>
                <circle id="Oval-14" fill="#BDBDBD" cx="24" cy="46.3682329" r="5"></circle>
                <circle id="Oval-14" fill="#BDBDBD" cx="48.5" cy="40.8682329" r="6.5"></circle>
                <circle id="Oval-15" fill="#6CC04A" cx="29" cy="28.3682329" r="3"></circle>
                <circle id="Oval-15" fill="#6CC04A" cx="38" cy="53.3682329" r="3"></circle>
                <circle id="Oval-15" fill="#6CC04A" cx="13" cy="40.3682329" r="3"></circle>
            </g>
        </g>
    </g>
</svg>