<?xml version="1.0" encoding="UTF-8"?>
<svg width="20px" height="20px" viewBox="0 0 20 20" version="1.1" xmlns="http://www.w3.org/2000/svg" xmlns:xlink="http://www.w3.org/1999/xlink">
    <!-- Generator: Sketch 56.3 (81716) - https://sketch.com -->
    <title>Icon/email</title>
    <desc>Created with Sketch.</desc>
    <g id="Icon/email" stroke="none" stroke-width="1" fill="none" fill-rule="evenodd">
        <path d="M13.7347656,8.4671875 C13.8414063,8.38242187 14,8.46171875 14,8.59570312 L14,14.1875 C14,14.9121094 13.4121094,15.5 12.6875,15.5 L1.3125,15.5 C0.587890625,15.5 0,14.9121094 0,14.1875 L0,8.5984375 C0,8.46171875 0.155859375,8.38515625 0.265234375,8.46992187 C0.877734375,8.94570312 1.68984375,9.55 4.47890625,11.5761719 C5.05585937,11.9972656 6.02929688,12.8832031 7,12.8777344 C7.97617187,12.8859375 8.96875,11.9808594 9.52382812,11.5761719 C12.3128906,9.55 13.1222656,8.94296875 13.7347656,8.4671875 Z M7,12 C7.634375,12.0109375 8.54765625,11.2015625 9.00703125,10.8679687 C12.6355469,8.23476562 12.9117188,8.00507812 13.7484375,7.34882812 C13.9070313,7.22578125 14,7.034375 14,6.83203125 L14,6.3125 C14,5.58789062 13.4121094,5 12.6875,5 L1.3125,5 C0.587890625,5 0,5.58789062 0,6.3125 L0,6.83203125 C0,7.034375 0.09296875,7.22304687 0.2515625,7.34882812 C1.08828125,8.00234375 1.36445313,8.23476562 4.99296875,10.8679687 C5.45234375,11.2015625 6.365625,12.0109375 7,12 Z" id="Shape" fill="#FFFFFF" fill-rule="nonzero"></path>
    </g>
</svg>