<?xml version="1.0" encoding="UTF-8"?>
<svg width="20px" height="20px" viewBox="0 0 20 20" version="1.1" xmlns="http://www.w3.org/2000/svg" xmlns:xlink="http://www.w3.org/1999/xlink">
    <!-- Generator: Sketch 56.3 (81716) - https://sketch.com -->
    <title>Icon/form</title>
    <desc>Created with Sketch.</desc>
    <g id="Icon/form" stroke="none" stroke-width="1" fill="none" fill-rule="evenodd">
        <path d="M4.08332422,9.21875 L4.08332422,10.78125 C4.08332422,11.0401367 3.78951562,11.25 3.42707422,11.25 L0.65625,11.25 C0.293808594,11.25 0,11.0401367 0,10.78125 L0,9.21875 C0,8.95986328 0.293808594,8.75 0.65625,8.75 L3.42707422,8.75 C3.78951562,8.75 4.08332422,8.95986328 4.08332422,9.21875 Z M0,13.59375 L0,15.15625 C0,15.4151367 0.293808594,15.625 0.65625,15.625 L3.42707422,15.625 C3.78951562,15.625 4.08332422,15.4151367 4.08332422,15.15625 L4.08332422,13.59375 C4.08332422,13.3348633 3.78951562,13.125 3.42707422,13.125 L0.65625,13.125 C0.293808594,13.125 0,13.3348633 0,13.59375 Z M3.42707422,4.375 L0.65625,4.375 C0.293808594,4.375 0,4.58486328 0,4.84375 L0,6.40625 C0,6.66513672 0.293808594,6.875 0.65625,6.875 L3.42707422,6.875 C3.78951562,6.875 4.08332422,6.66513672 4.08332422,6.40625 L4.08332422,4.84375 C4.08332422,4.58486328 3.78951562,4.375 3.42707422,4.375 Z M5.61457422,15.625 L13.34375,15.625 C13.7061914,15.625 14,15.4151367 14,15.15625 L14,13.59375 C14,13.3348633 13.7061914,13.125 13.34375,13.125 L5.61457422,13.125 C5.25213281,13.125 4.95832422,13.3348633 4.95832422,13.59375 L4.95832422,15.15625 C4.95832422,15.4151367 5.25213281,15.625 5.61457422,15.625 Z M4.95832422,4.84375 L4.95832422,6.40625 C4.95832422,6.66513672 5.25213281,6.875 5.61457422,6.875 L13.34375,6.875 C13.7061914,6.875 14,6.66513672 14,6.40625 L14,4.84375 C14,4.58486328 13.7061914,4.375 13.34375,4.375 L5.61457422,4.375 C5.25213281,4.375 4.95832422,4.58486328 4.95832422,4.84375 Z M5.61457422,11.25 L13.34375,11.25 C13.7061914,11.25 14,11.0401367 14,10.78125 L14,9.21875 C14,8.95986328 13.7061914,8.75 13.34375,8.75 L5.61457422,8.75 C5.25213281,8.75 4.95832422,8.95986328 4.95832422,9.21875 L4.95832422,10.78125 C4.95832422,11.0401367 5.25213281,11.25 5.61457422,11.25 Z" id="Shape" fill="#FFFFFF" fill-rule="nonzero"></path>
    </g>
</svg>