<?xml version="1.0" encoding="UTF-8"?>
<svg width="20px" height="20px" viewBox="0 0 20 20" version="1.1" xmlns="http://www.w3.org/2000/svg" xmlns:xlink="http://www.w3.org/1999/xlink">
    <!-- Generator: Sketch 56.3 (81716) - https://sketch.com -->
    <title>Icon/phone</title>
    <desc>Created with Sketch.</desc>
    <g id="Icon/phone" stroke="none" stroke-width="1" fill="none" fill-rule="evenodd">
        <path d="M13.6006717,12.8929142 L10.5381348,11.5803983 C10.2693769,11.4658598 9.95726625,11.5427728 9.77250061,11.7690725 L8.41623426,13.4261237 C6.28770043,12.4225406 4.5747199,10.7095601 3.57113681,8.58102626 L5.22818803,7.22475991 C5.45497848,7.04030491 5.53197961,6.72783656 5.41686218,6.45912568 L4.10434636,3.39658877 C3.97749199,3.10575333 3.66178928,2.94617996 3.35238417,3.01650607 L0.508599896,3.67276398 C0.210825962,3.74152626 0,4.00673185 0,4.312342 C0,11.3260984 5.68483415,17 12.6876529,17 C12.9933653,17.0001909 13.2587191,16.7892687 13.3275044,16.491395 L13.9837623,13.6476108 C14.0536311,13.3367202 13.8928696,13.0200165 13.6006717,12.8929142 L13.6006717,12.8929142 Z" id="Path" fill="#FFFFFF" fill-rule="nonzero"></path>
    </g>
</svg>