<?xml version="1.0" encoding="UTF-8"?>
<svg width="152px" height="25px" viewBox="0 0 152 25" version="1.1" xmlns="http://www.w3.org/2000/svg" xmlns:xlink="http://www.w3.org/1999/xlink">
    <!-- Generator: Sketch 57.1 (83088) - https://sketch.com -->
    <title>PoweredByCookiePro</title>
    <desc>Created with Sketch.</desc>
    <g id="PoweredByCookiePro" stroke="none" stroke-width="1" fill="none" fill-rule="evenodd">
        <g id="Group" transform="translate(7.000000, 4.000000)" fill-rule="nonzero">
            <path d="M6.609375,6.9296875 C6.609375,7.79687934 6.31347952,8.46386485 5.72167969,8.93066406 C5.12987985,9.39746327 4.28320863,9.63085938 3.18164062,9.63085938 L2.17382812,9.63085938 L2.17382812,13 L1.17773438,13 L1.17773438,4.43359375 L3.3984375,4.43359375 C5.5390732,4.43359375 6.609375,5.26561668 6.609375,6.9296875 Z M2.17382812,8.77539062 L3.0703125,8.77539062 C3.95312941,8.77539062 4.5917949,8.63281393 4.98632812,8.34765625 C5.38086135,8.06249857 5.578125,7.60547189 5.578125,6.9765625 C5.578125,6.41015342 5.39257998,5.98828264 5.02148438,5.7109375 C4.65038877,5.43359236 4.07226955,5.29492188 3.28710938,5.29492188 L2.17382812,5.29492188 L2.17382812,8.77539062 Z M13.7988281,9.78320312 C13.7988281,10.8300834 13.5351589,11.647458 13.0078125,12.2353516 C12.4804661,12.8232451 11.7519578,13.1171875 10.8222656,13.1171875 C10.248044,13.1171875 9.73828348,12.9824232 9.29296875,12.7128906 C8.84765402,12.443358 8.50390746,12.0566431 8.26171875,11.5527344 C8.01953004,11.0488256 7.8984375,10.4589878 7.8984375,9.78320312 C7.8984375,8.73632289 8.16015363,7.92090136 8.68359375,7.33691406 C9.20703387,6.75292677 9.9335891,6.4609375 10.8632812,6.4609375 C11.7617232,6.4609375 12.4755833,6.75976264 13.0048828,7.35742188 C13.5341823,7.95508111 13.7988281,8.76366678 13.7988281,9.78320312 Z M8.90625,9.78320312 C8.90625,10.6035197 9.07031086,11.2285135 9.3984375,11.6582031 C9.72656414,12.0878928 10.2089812,12.3027344 10.8457031,12.3027344 C11.4824251,12.3027344 11.9658187,12.0888693 12.2958984,11.6611328 C12.6259782,11.2333963 12.7910156,10.607426 12.7910156,9.78320312 C12.7910156,8.96679279 12.6259782,8.34668181 12.2958984,7.92285156 C11.9658187,7.49902132 11.4785188,7.28710938 10.8339844,7.28710938 C10.1972624,7.28710938 9.7167985,7.49609166 9.39257812,7.9140625 C9.06835775,8.33203334 8.90625,8.95507398 8.90625,9.78320312 Z M20.7480469,13 L19.5703125,9.23242188 C19.4960934,9.00195197 19.3574229,8.47851971 19.1542969,7.66210938 L19.1074219,7.66210938 C18.9511711,8.34570654 18.8144537,8.87304502 18.6972656,9.24414062 L17.484375,13 L16.359375,13 L14.6074219,6.578125 L15.6269531,6.578125 C16.0410177,8.19141432 16.3564442,9.41991766 16.5732422,10.2636719 C16.7900401,11.1074261 16.9140623,11.6757798 16.9453125,11.96875 L16.9921875,11.96875 C17.0351565,11.7460926 17.1044917,11.4580096 17.2001953,11.1044922 C17.2958989,10.7509748 17.3789059,10.4707042 17.4492188,10.2636719 L18.6269531,6.578125 L19.6816406,6.578125 L20.8300781,10.2636719 C21.0488292,10.9355502 21.1972652,11.4999977 21.2753906,11.9570312 L21.3222656,11.9570312 C21.3378907,11.8164055 21.3798825,11.5996108 21.4482422,11.3066406 C21.5166019,11.0136704 21.9238244,9.4375143 22.6699219,6.578125 L23.6777344,6.578125 L21.9023438,13 L20.7480469,13 Z M27.5507812,13.1171875 C26.6015578,13.1171875 25.8525418,12.8281279 25.3037109,12.25 C24.7548801,11.6718721 24.4804688,10.8691458 24.4804688,9.84179688 C24.4804688,8.80663545 24.735349,7.98437805 25.2451172,7.375 C25.7548854,6.76562195 26.4394488,6.4609375 27.2988281,6.4609375 C28.1035196,6.4609375 28.740232,6.72558329 29.2089844,7.25488281 C29.6777367,7.78418233 29.9121094,8.48241754 29.9121094,9.34960938 L29.9121094,9.96484375 L25.4882812,9.96484375 C25.5078126,10.7187538 25.6982404,11.2910137 26.0595703,11.6816406 C26.4209002,12.0722676 26.9296842,12.2675781 27.5859375,12.2675781 C28.2773472,12.2675781 28.9609341,12.1230483 29.6367188,11.8339844 L29.6367188,12.7011719 C29.292967,12.8496101 28.967775,12.9560544 28.6611328,13.0205078 C28.3544907,13.0849613 27.9843772,13.1171875 27.5507812,13.1171875 Z M27.2871094,7.27539062 C26.7714818,7.27539062 26.3603531,7.4433577 26.0537109,7.77929688 C25.7470688,8.11523605 25.5664065,8.58007516 25.5117188,9.17382812 L28.8691406,9.17382812 C28.8691406,8.56054381 28.7324232,8.09082194 28.4589844,7.76464844 C28.1855455,7.43847493 27.7949244,7.27539062 27.2871094,7.27539062 Z M34.5,6.4609375 C34.7851577,6.4609375 35.0410145,6.48437477 35.2675781,6.53125 L35.1328125,7.43359375 C34.8671862,7.37499971 34.6328135,7.34570312 34.4296875,7.34570312 C33.9101537,7.34570312 33.4658222,7.55663852 33.0966797,7.97851562 C32.7275372,8.40039273 32.5429688,8.92577811 32.5429688,9.5546875 L32.5429688,13 L31.5703125,13 L31.5703125,6.578125 L32.3730469,6.578125 L32.484375,7.76757812 L32.53125,7.76757812 C32.7695324,7.34960729 33.0566389,7.02734488 33.3925781,6.80078125 C33.7285173,6.57421762 34.0976542,6.4609375 34.5,6.4609375 Z M39.1816406,13.1171875 C38.2324171,13.1171875 37.4834012,12.8281279 36.9345703,12.25 C36.3857394,11.6718721 36.1113281,10.8691458 36.1113281,9.84179688 C36.1113281,8.80663545 36.3662084,7.98437805 36.8759766,7.375 C37.3857447,6.76562195 38.0703082,6.4609375 38.9296875,6.4609375 C39.734379,6.4609375 40.3710914,6.72558329 40.8398438,7.25488281 C41.3085961,7.78418233 41.5429688,8.48241754 41.5429688,9.34960938 L41.5429688,9.96484375 L37.1191406,9.96484375 C37.138672,10.7187538 37.3290998,11.2910137 37.6904297,11.6816406 C38.0517596,12.0722676 38.5605436,12.2675781 39.2167969,12.2675781 C39.9082066,12.2675781 40.5917935,12.1230483 41.2675781,11.8339844 L41.2675781,12.7011719 C40.9238264,12.8496101 40.5986343,12.9560544 40.2919922,13.0205078 C39.98535,13.0849613 39.6152365,13.1171875 39.1816406,13.1171875 Z M38.9179688,7.27539062 C38.4023412,7.27539062 37.9912125,7.4433577 37.6845703,7.77929688 C37.3779282,8.11523605 37.1972659,8.58007516 37.1425781,9.17382812 L40.5,9.17382812 C40.5,8.56054381 40.3632826,8.09082194 40.0898438,7.76464844 C39.8164049,7.43847493 39.4257838,7.27539062 38.9179688,7.27539062 Z M47.5722656,12.1386719 L47.5195312,12.1386719 C47.0703103,12.7910189 46.398442,13.1171875 45.5039062,13.1171875 C44.6640583,13.1171875 44.0107445,12.830081 43.5439453,12.2558594 C43.0771461,11.6816378 42.84375,10.8652397 42.84375,9.80664062 C42.84375,8.74804158 43.0781227,7.92578418 43.546875,7.33984375 C44.0156273,6.75390332 44.6679646,6.4609375 45.5039062,6.4609375 C46.3750044,6.4609375 47.0429664,6.77734059 47.5078125,7.41015625 L47.5839844,7.41015625 L47.5429688,6.94726562 L47.5195312,6.49609375 L47.5195312,3.8828125 L48.4921875,3.8828125 L48.4921875,13 L47.7011719,13 L47.5722656,12.1386719 Z M45.6269531,12.3027344 C46.2910189,12.3027344 46.7724594,12.1220721 47.0712891,11.7607422 C47.3701187,11.3994123 47.5195312,10.8164103 47.5195312,10.0117188 L47.5195312,9.80664062 C47.5195312,8.89647982 47.3681656,8.24707226 47.0654297,7.85839844 C46.7626938,7.46972462 46.2793002,7.27539062 45.6152344,7.27539062 C45.044919,7.27539062 44.6084,7.4970681 44.3056641,7.94042969 C44.0029282,8.38379128 43.8515625,9.00976158 43.8515625,9.81835938 C43.8515625,10.638676 44.0019516,11.2578104 44.3027344,11.6757812 C44.6035171,12.0937521 45.044919,12.3027344 45.6269531,12.3027344 Z M53.8183594,4.43359375 L56.2382812,4.43359375 C57.3750057,4.43359375 58.1972631,4.60351393 58.7050781,4.94335938 C59.2128932,5.28320482 59.4667969,5.82030883 59.4667969,6.5546875 C59.4667969,7.06250254 59.3251967,7.48144366 59.0419922,7.81152344 C58.7587876,8.14160321 58.3457058,8.35546826 57.8027344,8.453125 L57.8027344,8.51171875 C59.1035221,8.73437611 59.7539062,9.41796303 59.7539062,10.5625 C59.7539062,11.3281288 59.4951198,11.9257791 58.9775391,12.3554688 C58.4599583,12.7851584 57.7363328,13 56.8066406,13 L53.8183594,13 L53.8183594,4.43359375 Z M54.8144531,8.1015625 L56.4550781,8.1015625 C57.1582066,8.1015625 57.664061,7.99121204 57.9726562,7.77050781 C58.2812515,7.54980358 58.4355469,7.17773699 58.4355469,6.65429688 C58.4355469,6.17382572 58.2636736,5.8271495 57.9199219,5.61425781 C57.5761702,5.40136612 57.0293006,5.29492188 56.2792969,5.29492188 L54.8144531,5.29492188 L54.8144531,8.1015625 Z M54.8144531,8.9453125 L54.8144531,12.1503906 L56.6015625,12.1503906 C57.2929722,12.1503906 57.8134748,12.0166029 58.1630859,11.7490234 C58.5126971,11.481444 58.6875,11.0625029 58.6875,10.4921875 C58.6875,9.96093484 58.5087908,9.57031375 58.1513672,9.3203125 C57.7939435,9.07031125 57.2500037,8.9453125 56.5195312,8.9453125 L54.8144531,8.9453125 Z M60.4277344,6.578125 L61.4707031,6.578125 L62.8769531,10.2402344 C63.1855484,11.0761761 63.3769528,11.6796856 63.4511719,12.0507812 L63.4980469,12.0507812 C63.5488284,11.8515615 63.6552726,11.5107446 63.8173828,11.0283203 C63.979493,10.545896 64.5097611,9.06251242 65.4082031,6.578125 L66.4511719,6.578125 L63.6914062,13.890625 C63.4179674,14.6132849 63.0986346,15.125975 62.7333984,15.4287109 C62.3681622,15.7314468 61.9199245,15.8828125 61.3886719,15.8828125 C61.0917954,15.8828125 60.7988296,15.8496097 60.5097656,15.7832031 L60.5097656,15.0039062 C60.7246104,15.0507815 60.9648424,15.0742188 61.2304688,15.0742188 C61.8984408,15.0742188 62.3749986,14.6992225 62.6601562,13.9492188 L63.0175781,13.0351562 L60.4277344,6.578125 Z" id="PoweredBy" fill="#212529"></path>
            <path d="M80.463,10.634 C80.2116654,11.4573375 79.7653365,12.0791646 79.124,12.4995 C78.4826635,12.9198354 77.7156711,13.13 76.823,13.13 C75.9823291,13.13 75.2500031,12.9523351 74.626,12.597 C74.0019969,12.2416649 73.5231683,11.7325033 73.1895,11.0695 C72.8558317,10.4064967 72.689,9.62000455 72.689,8.71 C72.689,7.79999545 72.8558317,7.01350331 73.1895,6.3505 C73.5231683,5.68749668 73.9998302,5.17833511 74.6195,4.823 C75.2391698,4.46766489 75.9649958,4.29 76.797,4.29 C77.6896711,4.29 78.4458302,4.47633147 79.0655,4.849 C79.6851698,5.22166853 80.1119988,5.77632965 80.346,6.513 L78.721,7.202 C78.5823326,6.69066411 78.3656681,6.32233446 78.071,6.097 C77.7763319,5.87166554 77.3776692,5.759 76.875,5.759 C76.1469964,5.759 75.5771687,6.01466411 75.1655,6.526 C74.7538313,7.03733589 74.548,7.76532861 74.548,8.71 C74.548,9.65467139 74.7473313,10.3826641 75.146,10.894 C75.5446687,11.4053359 76.1079964,11.661 76.836,11.661 C77.8846719,11.661 78.543332,11.1540051 78.812,10.14 L80.463,10.634 Z M84.805,6.37 C85.8536719,6.37 86.6704971,6.66899701 87.2555,7.267 C87.8405029,7.86500299 88.133,8.69266138 88.133,9.75 C88.133,10.8073386 87.8405029,11.634997 87.2555,12.233 C86.6704971,12.831003 85.8536719,13.13 84.805,13.13 C83.7563281,13.13 82.9395029,12.831003 82.3545,12.233 C81.7694971,11.634997 81.477,10.8073386 81.477,9.75 C81.477,8.69266138 81.7694971,7.86500299 82.3545,7.267 C82.9395029,6.66899701 83.7563281,6.37 84.805,6.37 Z M84.805,7.696 C84.3023308,7.696 83.9188347,7.86716495 83.6545,8.2095 C83.3901653,8.55183504 83.258,9.06532991 83.258,9.75 C83.258,10.4346701 83.3901653,10.948165 83.6545,11.2905 C83.9188347,11.632835 84.3023308,11.804 84.805,11.804 C85.3076692,11.804 85.6911653,11.632835 85.9555,11.2905 C86.2198347,10.948165 86.352,10.4346701 86.352,9.75 C86.352,9.06532991 86.2198347,8.55183504 85.9555,8.2095 C85.6911653,7.86716495 85.3076692,7.696 84.805,7.696 Z M92.657,6.37 C93.7056719,6.37 94.5224971,6.66899701 95.1075,7.267 C95.6925029,7.86500299 95.985,8.69266138 95.985,9.75 C95.985,10.8073386 95.6925029,11.634997 95.1075,12.233 C94.5224971,12.831003 93.7056719,13.13 92.657,13.13 C91.6083281,13.13 90.7915029,12.831003 90.2065,12.233 C89.6214971,11.634997 89.329,10.8073386 89.329,9.75 C89.329,8.69266138 89.6214971,7.86500299 90.2065,7.267 C90.7915029,6.66899701 91.6083281,6.37 92.657,6.37 Z M92.657,7.696 C92.1543308,7.696 91.7708347,7.86716495 91.5065,8.2095 C91.2421653,8.55183504 91.11,9.06532991 91.11,9.75 C91.11,10.4346701 91.2421653,10.948165 91.5065,11.2905 C91.7708347,11.632835 92.1543308,11.804 92.657,11.804 C93.1596692,11.804 93.5431653,11.632835 93.8075,11.2905 C94.0718347,10.948165 94.204,10.4346701 94.204,9.75 C94.204,9.06532991 94.0718347,8.55183504 93.8075,8.2095 C93.5431653,7.86716495 93.1596692,7.696 92.657,7.696 Z M100.483,10.127 L99.3,11.388 L99.3,13 L97.519,13 L97.519,3.653 L99.3,3.653 L99.3,9.464 L102.121,6.5 L104.136,6.5 L101.692,9.048 L104.292,13 L102.277,13 L100.483,10.127 Z M106.242,5.564 C105.50533,5.564 105.137,5.24766983 105.137,4.615 C105.137,3.97366346 105.50533,3.653 106.242,3.653 C106.97867,3.653 107.347,3.97366346 107.347,4.615 C107.347,5.24766983 106.97867,5.564 106.242,5.564 Z M107.126,13 L105.345,13 L105.345,6.5 L107.126,6.5 L107.126,13 Z M115.082,9.724 C115.082,9.96666788 115.064667,10.2006655 115.03,10.426 L110.428,10.426 C110.610001,11.3446713 111.151662,11.804 112.053,11.804 C112.425669,11.804 112.733332,11.7346674 112.976,11.596 C113.218668,11.4573326 113.387666,11.2580013 113.483,10.998 L114.939,11.531 C114.730999,12.0510026 114.382169,12.4474986 113.8925,12.7205 C113.402831,12.9935014 112.78967,13.13 112.053,13.13 C110.978328,13.13 110.146336,12.8331696 109.557,12.2395 C108.967664,11.6458304 108.673,10.8160053 108.673,9.75 C108.673,8.68399467 108.958997,7.85416963 109.531,7.2605 C110.103003,6.66683036 110.908995,6.37 111.949,6.37 C112.954338,6.37 113.727831,6.66033043 114.2695,7.241 C114.811169,7.82166957 115.082,8.64932796 115.082,9.724 Z M111.936,7.683 C111.502665,7.683 111.158168,7.80866541 110.9025,8.06 C110.646832,8.31133459 110.484334,8.68399753 110.415,9.178 L113.444,9.178 C113.374666,8.69266424 113.210001,8.32216795 112.95,8.0665 C112.689999,7.81083205 112.352002,7.683 111.936,7.683 Z M120.36,4.42 C121.356672,4.42 122.132331,4.6604976 122.687,5.1415 C123.241669,5.62250241 123.519,6.30066229 123.519,7.176 C123.519,8.02533758 123.241669,8.68833095 122.687,9.165 C122.132331,9.64166905 121.356672,9.88 120.36,9.88 L118.553,9.88 L118.553,13 L116.759,13 L116.759,4.42 L120.36,4.42 Z M120.087,8.489 C120.641669,8.489 121.048999,8.3785011 121.309,8.1575 C121.569001,7.93649889 121.699,7.60500221 121.699,7.163 C121.699,6.72099779 121.569001,6.39166775 121.309,6.175 C121.048999,5.95833225 120.641669,5.85 120.087,5.85 L118.553,5.85 L118.553,8.489 L120.087,8.489 Z M128.654,6.37 C128.957335,6.37 129.191333,6.41766619 129.356,6.513 L129.135,8.073 C128.935666,7.94299935 128.662668,7.878 128.316,7.878 C127.891331,7.878 127.525168,8.0318318 127.2175,8.3395 C126.909832,8.6471682 126.756,9.07833056 126.756,9.633 L126.756,13 L124.975,13 L124.975,6.5 L126.522,6.5 L126.639,7.774 C126.994335,6.83799532 127.665995,6.37 128.654,6.37 Z M133.451,6.37 C134.499672,6.37 135.316497,6.66899701 135.9015,7.267 C136.486503,7.86500299 136.779,8.69266138 136.779,9.75 C136.779,10.8073386 136.486503,11.634997 135.9015,12.233 C135.316497,12.831003 134.499672,13.13 133.451,13.13 C132.402328,13.13 131.585503,12.831003 131.0005,12.233 C130.415497,11.634997 130.123,10.8073386 130.123,9.75 C130.123,8.69266138 130.415497,7.86500299 131.0005,7.267 C131.585503,6.66899701 132.402328,6.37 133.451,6.37 Z M133.451,7.696 C132.948331,7.696 132.564835,7.86716495 132.3005,8.2095 C132.036165,8.55183504 131.904,9.06532991 131.904,9.75 C131.904,10.4346701 132.036165,10.948165 132.3005,11.2905 C132.564835,11.632835 132.948331,11.804 133.451,11.804 C133.953669,11.804 134.337165,11.632835 134.6015,11.2905 C134.865835,10.948165 134.998,10.4346701 134.998,9.75 C134.998,9.06532991 134.865835,8.55183504 134.6015,8.2095 C134.337165,7.86716495 133.953669,7.696 133.451,7.696 Z" id="CookiePro" fill="#6699CC"></path>
        </g>
    </g>
</svg>