<?xml version="1.0" encoding="UTF-8"?>
<svg width="400px" height="248px" viewBox="0 0 400 248" version="1.1" xmlns="http://www.w3.org/2000/svg" xmlns:xlink="http://www.w3.org/1999/xlink">
    <!-- Generator: Sketch 55.2 (78181) - https://sketchapp.com -->
    <title>Group 2</title>
    <desc>Created with Sketch.</desc>
    <g id="Group-2" stroke="none" stroke-width="1" fill="none" fill-rule="evenodd">
        <g id="Rectangle">
            <rect stroke="#979797" fill="#FFFFFF" x="0.5" y="0.5" width="399" height="247" rx="5"></rect>
            <path d="M5,0 L395,0 C397.761424,-3.23915461e-14 400,2.23857625 400,5 L400,22.9099307 L0,22.9099307 L0,5 C-3.38176876e-16,2.23857625 2.23857625,5.07265313e-16 5,0 Z" fill="#696969"></path>
        </g>
        <g id="Stacked-Group" transform="translate(12.000000, 8.000000)">
            <circle id="Oval-Copy" fill="#6CC04A" cx="36" cy="4" r="4"></circle>
            <circle id="Oval-Copy-2" fill="#F5D843" cx="20" cy="4" r="4"></circle>
            <circle id="Oval-Copy-3" fill="#FF6157" cx="4" cy="4" r="4"></circle>
        </g>
        <g id="Stacked-Group-5" transform="translate(123.000000, 7.000000)" fill="#F4F4F4">
            <rect id="Rectangle" x="189" y="0" width="67" height="10" rx="2"></rect>
            <rect id="Rectangle" x="0" y="0" width="182" height="10" rx="2"></rect>
        </g>
        <g id="Stacked-Group-6" transform="translate(38.000000, 168.000000)" fill="#F4F4F4">
            <rect id="Rectangle" x="0" y="0" width="92" height="63" rx="3"></rect>
            <rect id="Rectangle" x="117" y="0" width="91" height="63" rx="3"></rect>
            <rect id="Rectangle" x="233" y="0" width="91" height="63" rx="3"></rect>
        </g>
        <g id="Stacked-Group-7" transform="translate(103.000000, 58.000000)" fill="#F4F4F4">
            <rect id="Rectangle" x="0" y="0" width="194" height="30" rx="3"></rect>
        </g>
        <g id="Stacked-Group-7" transform="translate(135.000000, 103.000000)" fill="#F4F4F4">
            <rect id="Rectangle" x="0" y="0" width="130" height="15" rx="3"></rect>
        </g>
    </g>
</svg>